<svg width="299" height="207" viewBox="0 0 299 207" fill="none" xmlns="http://www.w3.org/2000/svg">
    <circle cx="148.721" cy="103.5" r="98.5" stroke="#009688" stroke-width="2"/>
    <rect x="171.221" y="89" width="1" height="29" fill="#009688"/>
    <rect x="192.221" y="89" width="1" height="29" fill="#009688"/>
    <rect x="213.221" y="89" width="1" height="29" fill="#009688"/>
    <rect x="234.221" y="89" width="1" height="29" fill="#009688"/>
    <rect x="62.2212" y="89" width="1" height="29" fill="#009688"/>
    <rect x="83.2212" y="89" width="1" height="29" fill="#009688"/>
    <rect x="104.221" y="89" width="1" height="29" fill="#009688"/>
    <rect x="125.221" y="89" width="1" height="29" fill="#009688"/>
    <rect x="134.221" y="81" width="1" height="29" transform="rotate(-90 134.221 81)" fill="#009688"/>
    <rect x="134.221" y="60" width="1" height="29" transform="rotate(-90 134.221 60)" fill="#009688"/>
    <rect x="134.221" y="39" width="1" height="29" transform="rotate(-90 134.221 39)" fill="#009688"/>
    <rect x="134.221" y="18" width="1" height="29" transform="rotate(-90 134.221 18)" fill="#009688"/>
    <rect x="134.221" y="190" width="1" height="29" transform="rotate(-90 134.221 190)" fill="#009688"/>
    <rect x="134.221" y="169" width="1" height="29" transform="rotate(-90 134.221 169)" fill="#009688"/>
    <rect x="134.221" y="148" width="1" height="29" transform="rotate(-90 134.221 148)" fill="#009688"/>
    <rect x="134.221" y="127" width="1" height="29" transform="rotate(-90 134.221 127)" fill="#009688"/>
</svg>
